<svg width="75" height="13" viewBox="0 0 75 13" fill="none" xmlns="http://www.w3.org/2000/svg">
<path fill-rule="evenodd" clip-rule="evenodd" d="M3.06738 7.47172C3.06738 5.93001 3.06738 5.15915 3.36727 4.5702C3.63078 4.05203 4.05258 3.63121 4.57075 3.36672C5.1597 3.06683 5.93056 3.06683 7.47227 3.06683H9.67471C11.2164 3.06683 11.9873 3.06683 12.5762 3.36672C13.0944 3.63023 13.5152 4.05203 13.7797 4.5702C14.0796 5.15915 14.0796 5.93001 14.0796 7.47172V8.10099C14.0796 9.6427 14.0796 10.4136 13.7797 11.0025C13.5162 11.5207 13.0944 11.9415 12.5762 12.206C11.9873 12.5059 11.2164 12.5059 9.67471 12.5059H5.58446C4.70348 12.5059 4.26299 12.5059 3.92673 12.3348C3.63078 12.1844 3.38988 11.9435 3.23945 11.6475C3.06837 11.3112 3.06837 10.8708 3.06837 9.98978V7.47172H3.06738ZM7.00032 7.78635C7.00032 7.35176 7.35231 6.99977 7.7869 6.99977C8.22149 6.99977 8.57349 7.35176 8.57349 7.78635V9.35953C8.57349 9.79412 8.22149 10.1461 7.7869 10.1461C7.35231 10.1461 7.00032 9.79412 7.00032 9.35953V7.78635ZM10.9333 6.99977C10.4987 6.99977 10.1467 7.35176 10.1467 7.78635V9.35953C10.1467 9.79412 10.4987 10.1461 10.9333 10.1461C11.3678 10.1461 11.7198 9.79412 11.7198 9.35953V7.78635C11.7198 7.35176 11.3678 6.99977 10.9333 6.99977Z" fill="#878787"/>
<path fill-rule="evenodd" clip-rule="evenodd" d="M5.81513 0.689337C5.8692 1.11999 5.56243 1.51329 5.13178 1.56736C4.89384 1.59686 4.70309 1.63717 4.53397 1.68929C3.17711 2.11306 2.11423 3.17593 1.69046 4.5328C1.63737 4.70191 1.59804 4.89266 1.56756 5.1306C1.51348 5.56126 1.12117 5.86803 0.689529 5.81395C0.258873 5.75987 -0.047896 5.36756 0.0061818 4.93592C0.0445279 4.6262 0.101555 4.34107 0.18808 4.06478C0.766221 2.21433 2.21551 0.765046 4.06595 0.187888C4.34224 0.101363 4.62738 0.0443357 4.9371 0.00598964C5.36874 -0.047105 5.76203 0.258681 5.81513 0.689337Z" fill="#878787"/>
<path d="M21.38 5.14825C20.2454 5.14825 19.2218 5.85323 19.2218 6.91021C19.2218 7.90131 20.1362 8.23167 21.0388 8.36343C21.6337 8.45192 21.8539 8.49518 21.8539 8.71543C21.8539 8.91404 21.6779 9.01236 21.4026 9.01236C20.7085 9.01236 20.4558 8.75869 19.8826 8.75869C19.387 8.75869 19.2002 9.12248 19.2002 9.5846C19.2002 10.0802 20.092 10.4322 21.2158 10.4322C22.7025 10.4322 23.4841 9.7606 23.4841 8.6702C23.4841 7.65747 22.7241 7.26024 21.5462 7.09506C21.1608 7.04 20.8412 7.04 20.8412 6.80894C20.8412 6.59951 21.1057 6.5002 21.4361 6.5002C21.8107 6.5002 22.2728 6.72044 22.6366 6.72044C23.1105 6.72044 23.3081 6.41171 23.3081 5.96041C23.3081 5.65167 23.1095 5.47567 22.8785 5.37636C22.4704 5.20332 22.0083 5.14825 21.38 5.14825Z" fill="#878787"/>
<path d="M24.4106 6.76653H24.7852C24.796 7.28371 24.7744 7.8235 24.7744 8.34167C24.7744 9.79489 25.5452 10.3897 26.558 10.3897C27.1302 10.3897 27.3622 10.3455 27.6149 10.1695C27.8136 10.0377 27.9119 9.84995 27.9119 9.43207C27.9119 9.08008 27.6808 8.7271 27.2846 8.7271C27.1194 8.7271 27.0751 8.78216 26.8549 8.78216C26.5688 8.78216 26.4911 8.45179 26.4911 8.1873V6.75571H27.2511C27.6474 6.75571 27.846 6.40372 27.846 5.99567C27.846 5.48931 27.5815 5.23564 27.1302 5.24645H26.5029C26.5137 4.87184 26.5245 4.61915 26.5245 4.40972C26.5245 3.99086 26.2492 3.72736 25.7979 3.72736C25.1706 3.72736 24.8403 4.05772 24.8176 4.67421L24.796 5.25825H24.4548C24.0478 5.25825 23.7725 5.5778 23.7725 5.99567C23.7725 6.45878 23.9485 6.76653 24.4106 6.76653Z" fill="#878787"/>
<path d="M28.6994 5.9958V6.9869C28.6994 7.73612 28.6777 8.70461 28.6777 9.55314C28.6777 10.2031 29.0632 10.3791 29.5587 10.3791C30.0543 10.3791 30.4613 10.1804 30.4731 9.66326C30.4948 9.2444 30.4515 8.65053 30.4515 8.24249C30.4515 7.1747 30.8812 6.84433 31.4642 6.84433H31.6078C32.0817 6.84433 32.3019 6.39303 32.3019 5.97417C32.3019 5.40193 32.0374 5.14825 31.5419 5.14825C31.0572 5.14825 30.5174 5.47862 30.3197 5.92992L30.243 5.65462C30.1545 5.34588 29.9235 5.1925 29.5823 5.1925C29.0297 5.1925 28.6994 5.46781 28.6994 5.9958Z" fill="#878787"/>
<path d="M34.404 8.24231C35.7589 8.2315 36.4747 8.20888 36.6949 8.20888C37.4324 8.19807 37.5867 7.90015 37.5867 7.23942C37.5867 6.18244 36.6399 5.14709 35.2299 5.14709C33.7433 5.14709 32.5762 6.29256 32.5762 7.91096C32.5762 9.30912 33.7325 10.4221 35.1857 10.4221C36.0775 10.4221 36.573 10.2678 36.9584 10.0367C37.2229 9.88235 37.3655 9.64047 37.3655 9.37598C37.3655 8.92468 37.046 8.52843 36.6497 8.52843C36.4511 8.52843 36.2751 8.5835 36.0883 8.6828C35.9123 8.78211 35.6035 8.88142 35.2958 8.88142C34.933 8.88142 34.4807 8.67199 34.404 8.24231ZM35.2083 6.54624C35.5937 6.54624 35.8907 6.78811 35.8907 7.10766C35.8907 7.15191 35.8248 7.16272 35.7589 7.16272C35.3184 7.17354 34.812 7.19615 34.3932 7.19615C34.4256 6.86579 34.7678 6.54624 35.2083 6.54624Z" fill="#878787"/>
<path d="M43.6943 6.83347L43.7051 5.98593C43.7051 5.47956 43.4298 5.20425 42.8684 5.20425C42.5931 5.20425 42.3512 5.28095 42.2076 5.47956C42.1526 5.55625 42.1083 5.64474 42.0759 5.76568C41.8114 5.39107 41.3493 5.18164 40.8429 5.18164C39.3671 5.18164 38.2334 6.21699 38.2334 7.90126C38.2334 9.33285 39.1803 10.4006 40.7111 10.4006C41.2952 10.4006 41.7681 10.1253 42.0326 9.69567C42.1762 10.1912 42.418 10.3672 42.8035 10.3672C43.3098 10.3672 43.7287 10.2355 43.7287 9.61799C43.7071 9.24338 43.6953 8.86877 43.6953 8.49514V6.83347H43.6943ZM40.0602 7.85702C40.0602 7.11959 40.4457 6.71155 41.0071 6.71155C41.5027 6.71155 41.954 7.08616 41.954 7.77934C41.954 8.47252 41.4918 8.89138 40.952 8.89138C40.4349 8.89236 40.0602 8.44106 40.0602 7.85702Z" fill="#878787"/>
<path d="M44.9277 7.56038L44.9168 8.88185C44.8952 9.39903 44.906 9.44327 44.906 9.58682C44.906 10.1925 45.3573 10.3685 45.787 10.3685C46.2826 10.3685 46.723 10.1591 46.723 9.66352V7.79144C46.7122 7.24083 46.8332 6.64597 47.4605 6.64597C47.8793 6.64597 48.077 7.10809 48.077 7.49352C48.0878 8.52886 48.0553 8.83662 48.0553 9.65172C48.0553 10.1256 48.4073 10.3567 48.9147 10.3675C49.3994 10.3783 49.8173 10.1807 49.8399 9.69596C49.8507 9.34397 49.8507 8.94674 49.8507 8.63899C49.8507 8.18768 49.8507 7.82389 49.8615 7.37258C49.8615 6.97634 50.1811 6.6676 50.5557 6.6676C51.007 6.6676 51.1171 7.06385 51.1171 7.49352C51.1171 8.38531 51.0837 9.02441 51.0837 9.66253C51.0837 10.0922 51.4357 10.3675 51.9863 10.3675C52.3167 10.3675 52.8565 10.279 52.8889 9.71759C52.9105 9.27711 52.9105 8.88086 52.9105 8.49543L52.8997 7.26246C52.8997 5.98524 52.2832 5.12589 50.8841 5.14851C50.3551 5.15932 49.7278 5.48969 49.4083 5.94099C49.1329 5.47887 48.659 5.14851 47.9324 5.14851C47.4034 5.14851 46.842 5.5005 46.6444 5.8643L46.6001 5.66569C46.5343 5.37957 46.2481 5.14851 45.8509 5.14851C45.2344 5.14851 44.9149 5.42381 44.9149 5.93018C44.9168 6.28316 44.9493 6.52503 44.9277 7.56038Z" fill="#878787"/>
<path d="M54.1127 3.18778C54.091 5.0048 54.0576 7.40585 54.1018 9.16781C54.1127 10.1589 54.5089 10.4342 55.1264 10.3683C55.7763 10.3025 55.9631 10.0596 55.9857 9.5316C55.9965 9.16781 55.9641 8.74993 55.9641 8.28683C55.9641 6.56912 55.9641 4.89467 55.9975 3.18778C56.0083 2.63717 55.6337 2.37268 55.0507 2.37268C54.5423 2.37366 54.1235 2.62635 54.1127 3.18778Z" fill="#878787"/>
<path d="M62.374 6.83347L62.3848 5.98593C62.3848 5.47956 62.1095 5.20425 61.548 5.20425C61.2727 5.20425 61.0309 5.28095 60.8873 5.47956C60.8323 5.55625 60.788 5.64474 60.7556 5.76568C60.4911 5.39107 60.029 5.18164 59.5226 5.18164C58.0468 5.18164 56.9131 6.21699 56.9131 7.90126C56.9131 9.33285 57.8599 10.4006 59.3908 10.4006C59.9749 10.4006 60.4478 10.1253 60.7123 9.69567C60.8559 10.1912 61.0977 10.3672 61.4832 10.3672C61.9895 10.3672 62.4084 10.2355 62.4084 9.61799C62.3867 9.24338 62.3749 8.86877 62.3749 8.49514V6.83347H62.374ZM58.7399 7.85702C58.7399 7.11959 59.1254 6.71155 59.6868 6.71155C60.1823 6.71155 60.6336 7.08616 60.6336 7.77934C60.6336 8.47252 60.1715 8.89138 59.6317 8.89138C59.1145 8.89236 58.7399 8.44106 58.7399 7.85702Z" fill="#878787"/>
<path d="M63.6079 3.14442L63.6305 7.57094L63.5971 9.4322C63.5863 10.0044 63.7957 10.3348 64.3021 10.3574C64.7534 10.3791 65.0621 10.2473 65.1614 9.82844L65.1948 9.68489C65.4485 10.1254 65.9873 10.4115 66.5497 10.4115C68.1131 10.4115 69.171 9.21097 69.171 7.71351C69.171 6.29274 68.1799 5.14727 66.7267 5.14727C66.1761 5.14727 65.6589 5.31245 65.3718 5.76376C65.3718 5.75294 65.3718 5.59857 65.4052 3.07658C65.4161 2.42666 64.9539 2.30573 64.4692 2.30573C63.9825 2.30671 63.6197 2.53875 63.6079 3.14442ZM67.3638 7.72531C67.3638 8.40767 66.8575 8.90322 66.3393 8.90322C65.8438 8.90322 65.3925 8.46273 65.3925 7.81281C65.3925 7.04196 65.8664 6.70078 66.4278 6.70078C66.9116 6.70078 67.3638 7.08621 67.3638 7.72531Z" fill="#878787"/>
<path d="M72.0861 5.14825C70.9514 5.14825 69.9279 5.85323 69.9279 6.91021C69.9279 7.90131 70.8423 8.23167 71.7449 8.36343C72.3397 8.45192 72.56 8.49518 72.56 8.71543C72.56 8.91404 72.384 9.01236 72.1087 9.01236C71.4145 9.01236 71.1618 8.75869 70.5886 8.75869C70.0931 8.75869 69.9062 9.12248 69.9062 9.5846C69.9062 10.0802 70.798 10.4322 71.9219 10.4322C73.4085 10.4322 74.1902 9.7606 74.1902 8.6702C74.1902 7.65747 73.4302 7.26024 72.2522 7.09506C71.8668 7.04 71.5473 7.04 71.5473 6.80894C71.5473 6.59951 71.8118 6.5002 72.1421 6.5002C72.5167 6.5002 72.9788 6.72044 73.3426 6.72044C73.8166 6.72044 74.0142 6.41171 74.0142 5.96041C74.0142 5.65167 73.8156 5.47567 73.5845 5.37636C73.1755 5.20332 72.7134 5.14825 72.0861 5.14825Z" fill="#878787"/>
</svg>
