<svg width="46" height="21" viewBox="0 0 46 21" fill="none" xmlns="http://www.w3.org/2000/svg">
<g clip-path="url(#clip0_5054_21708)">
<path d="M0 0V21H46V0H0ZM29.0935 4.94688H30.4995L32.3787 10.1986H31.213L30.7679 9H28.8109L28.3658 10.1986H27.2001L29.0935 4.94688ZM9.52358 7.93995C9.52358 8.14781 9.51651 8.33487 9.50945 8.4873C9.50238 8.63972 9.48119 8.77829 9.45293 8.903C9.42467 9.02771 9.39641 9.13164 9.34695 9.22864C9.30456 9.32563 9.24804 9.4157 9.18446 9.5127C8.81708 10.0254 8.20243 10.2818 7.3405 10.2818C6.47858 10.2818 5.86392 10.0254 5.49654 9.5127C5.43296 9.4157 5.37644 9.32563 5.33405 9.22864C5.29166 9.13164 5.25634 9.02771 5.22808 8.903C5.19982 8.77829 5.18569 8.63972 5.17156 8.4873C5.16449 8.33487 5.15743 8.14781 5.15743 7.93303V4.94688H6.30195V7.7806V7.96074C6.30195 8.23095 6.33021 8.45266 6.37967 8.61894C6.42912 8.79215 6.54216 8.93764 6.70465 9.05543C6.86715 9.18014 7.0791 9.24249 7.33344 9.24249C7.58777 9.24249 7.79972 9.18014 7.96222 9.05543C8.12471 8.93072 8.23775 8.78522 8.28721 8.61894C8.33666 8.44573 8.36492 8.23095 8.36492 7.96074V7.7806V4.94688H9.50945V7.93995H9.52358ZM14.0734 10.1986H10.5056V4.94688H11.6501V9.12471H14.0734V10.1986ZM13.5365 5.90993V4.94688H17.8178V5.90993H16.2494V10.1986H15.1049V5.90993H13.5365ZM18.1852 16.1986H15.1049V11.7367H18.1216V12.5543H16.0799V13.5104H17.9662V14.3487H16.0799V15.2841H18.1852V16.1986ZM18.5809 4.94688H19.7466V10.1986H18.5809V4.94688ZM22.1416 16.1986L21.7672 15.1801H20.0998L19.7254 16.1986H18.7363L20.333 11.7367H21.527L23.1236 16.1986H22.1416ZM21.972 5.90993H21.9085V10.1986H20.8911V4.94688H22.7209L23.7383 8.67437H23.8019L24.8192 4.94688H26.6491V10.1986H25.6317V5.90993H25.5681L24.2964 10.1986H23.2437L21.972 5.90993ZM26.1262 16.1986L25.3067 14.6259H24.5366V16.1986H23.5617V11.7367H25.3279C25.5893 11.7367 25.8295 11.7644 26.0415 11.8199C26.2534 11.8753 26.4371 11.9584 26.5855 12.0762C26.7338 12.194 26.8469 12.3326 26.9317 12.5127C27.0094 12.6859 27.0518 12.8938 27.0518 13.1363C27.0518 13.4965 26.9882 13.7875 26.8539 14.0023C26.7197 14.2171 26.5148 14.3834 26.2322 14.5081L27.292 16.2055H26.1262V16.1986ZM31.2342 14.9307C31.2272 15.1594 31.1777 15.3533 31.0929 15.5127C31.0081 15.6721 30.8951 15.8106 30.7467 15.9284C30.5984 16.0462 30.4147 16.1293 30.2027 16.1917C29.9837 16.2471 29.7435 16.2748 29.468 16.2748C29.1854 16.2748 28.931 16.2402 28.6979 16.157C28.4648 16.0808 28.2669 15.9769 28.1115 15.8453C27.9561 15.7136 27.8289 15.5404 27.7441 15.3256C27.6593 15.1109 27.617 14.8614 27.624 14.5912H28.5919C28.599 14.8614 28.6696 15.0693 28.8039 15.2079C28.9381 15.3464 29.1642 15.4226 29.468 15.4434C29.7223 15.4503 29.9201 15.4226 30.0614 15.3464C30.2027 15.2771 30.2805 15.1801 30.3087 15.0624C30.337 14.9446 30.3228 14.8406 30.2593 14.7436C30.1957 14.6536 30.0685 14.5704 29.8636 14.5012C29.6587 14.4319 29.2984 14.2933 28.7756 14.0993C28.0762 13.8291 27.73 13.4273 27.7512 12.8938C27.7583 12.7136 27.8006 12.5404 27.8854 12.388C27.9702 12.2356 28.0903 12.1039 28.2387 11.9931C28.387 11.8822 28.5637 11.7991 28.7685 11.7436C28.9734 11.6813 29.2066 11.6536 29.468 11.6536C29.7435 11.6467 29.9837 11.6813 30.2027 11.7575C30.4147 11.8268 30.5984 11.9238 30.7538 12.0416C30.9022 12.1594 31.0223 12.3048 31.1 12.4711C31.1777 12.6374 31.2201 12.8314 31.2201 13.0462H30.2522C30.2593 12.8522 30.1957 12.7067 30.0544 12.6028C29.9131 12.5058 29.7223 12.4573 29.468 12.4503C29.2419 12.4434 29.0653 12.4711 28.9381 12.5404C28.8109 12.6097 28.7403 12.7136 28.7191 12.8453C28.705 12.97 28.7544 13.0808 28.8816 13.164C29.0088 13.2471 29.1924 13.3372 29.4468 13.4273L30.0473 13.6351C30.5348 13.8152 30.8598 13.9954 31.0152 14.1824C31.1706 14.3695 31.2413 14.6189 31.2342 14.9307ZM32.1456 15.6651H31.9478V16.1917H31.8489V15.6651H31.6511V15.582H32.1456V15.6651ZM32.8238 16.1917H32.7249V15.6928H32.7179L32.5695 16.1917H32.4847L32.3364 15.6928H32.3293V16.1917H32.2304V15.582H32.407L32.5271 16.0185H32.5342L32.6543 15.582H32.8309V16.1917H32.8238ZM36.5117 5.90993H34.9433V10.1986H33.7988V5.90993H32.2304V4.94688H36.5117V5.90993ZM40.8073 10.1986H37.1829V4.94688H40.7295V5.90993H38.3274V7.03233H40.5458V8.02309H38.3274V9.12471H40.8073V10.1986Z" fill="#2100FF"/>
<path d="M25.4334 12.5543H24.5361V13.7529H25.4334C25.6807 13.7529 25.8573 13.7044 25.9703 13.5935C26.0834 13.4896 26.1399 13.3441 26.1399 13.1501C26.1399 12.9561 26.0834 12.8106 25.9703 12.7067C25.8643 12.6028 25.6807 12.5543 25.4334 12.5543Z" fill="#2100FF"/>
<path d="M20.9057 12.5543L20.291 14.3487H21.5768L20.9622 12.5543H20.9057Z" fill="#2100FF"/>
<path d="M29.8282 5.90991H29.7716L29.0439 8.02308H30.5558L29.8282 5.90991Z" fill="#2100FF"/>
</g>
<defs>
<clipPath id="clip0_5054_21708">
<rect width="46" height="21" fill="white"/>
</clipPath>
</defs>
</svg>
