<svg width="48" height="14" viewBox="0 0 48 14" fill="none" xmlns="http://www.w3.org/2000/svg">
<path d="M13.9497 8.46155C13.5615 8.46155 13.1821 8.34577 12.8593 8.12886C12.5366 7.91194 12.285 7.60363 12.1365 7.24291C11.9879 6.88219 11.9491 6.48526 12.0248 6.10232C12.1005 5.71939 12.2874 5.36763 12.5619 5.09155C12.8364 4.81547 13.1861 4.62745 13.5668 4.55128C13.9475 4.47511 14.3421 4.51421 14.7007 4.66362C15.0594 4.81304 15.3659 5.06606 15.5815 5.3907C15.7972 5.71534 15.9123 6.09701 15.9123 6.48745C15.9153 6.74755 15.8667 7.00564 15.7691 7.24655C15.6716 7.48745 15.5271 7.7063 15.3443 7.89023C15.1614 8.07416 14.9439 8.21946 14.7044 8.31757C14.4649 8.41569 14.2083 8.46464 13.9497 8.46155ZM17.5478 4.43768V3.07884H15.1676C14.7763 2.93978 14.3647 2.8675 13.9497 2.86498C11.8955 2.86498 10.2796 4.43768 10.2796 6.48964C10.2796 8.54161 11.8955 10.1143 13.9497 10.1143C16.0039 10.1143 17.6186 8.54161 17.6186 6.49513C17.6186 5.802 17.4333 5.12203 17.0626 4.61644L17.5478 4.43768ZM6.02734 8.46155C5.63918 8.46155 5.25973 8.34577 4.93698 8.12886C4.61424 7.91194 4.36269 7.60363 4.21414 7.24291C4.0656 6.88219 4.02673 6.48526 4.10246 6.10232C4.17819 5.71939 4.36511 5.36763 4.63958 5.09155C4.91405 4.81547 5.26375 4.62745 5.64446 4.55128C6.02517 4.47511 6.41978 4.51421 6.7784 4.66362C7.13701 4.81304 7.44353 5.06606 7.65918 5.3907C7.87483 5.71534 7.98994 6.09701 7.98994 6.48745C7.99301 6.74755 7.94434 7.00564 7.8468 7.24655C7.74926 7.48745 7.60481 7.7063 7.42195 7.89023C7.23909 8.07416 7.02151 8.21946 6.78201 8.31757C6.54251 8.41569 6.28593 8.46464 6.02734 8.46155ZM6.02734 2.86827C3.97425 2.86827 2.35838 4.44097 2.35838 6.49294C2.35838 8.5449 3.97425 10.1143 6.02734 10.1143C8.08043 10.1143 9.6963 8.54161 9.6963 6.49513C9.6963 4.44864 8.08043 2.87594 6.02734 2.87594V2.86827ZM0 9.91361H1.69546V0.186781H0V9.91361ZM18.2946 9.91361H19.9901V3.07884H18.2946V9.91361ZM13.9497 12.3396C13.6931 12.3425 13.4386 12.2938 13.201 12.1964C12.9634 12.0991 12.7476 11.9549 12.5662 11.7724C12.3848 11.5899 12.2415 11.3728 12.1446 11.1339C12.0478 10.8949 11.9994 10.6389 12.0024 10.3808H10.2796C10.2796 12.4328 11.8955 14 13.9497 14C16.0039 14 17.6186 12.4284 17.6186 10.3808H15.897C15.8999 10.6389 15.8516 10.8949 15.7547 11.1339C15.6579 11.3728 15.5146 11.5899 15.3332 11.7724C15.1518 11.9549 14.9359 12.0991 14.6983 12.1964C14.4608 12.2938 14.2062 12.3425 13.9497 12.3396V12.3396ZM26.229 5.78336C26.4547 4.87746 27.1427 4.37078 28.0302 4.37078C28.9177 4.37078 29.5806 4.8643 29.7922 5.78336H26.229ZM28.0705 2.86498C26.0305 2.86498 24.4801 4.43768 24.4801 6.52913C24.4801 8.59535 25.8975 10.1143 28.0967 10.1143C29.3157 10.1143 30.4017 9.66027 31.1965 8.80812L30.0571 7.67739C29.5011 8.2104 28.9046 8.59754 28.1371 8.59754C27.2092 8.59754 26.507 8.06454 26.2693 7.17181H31.5541V6.75615C31.5541 4.42452 30.1236 2.86498 28.0705 2.86498V2.86498ZM43.0789 2.86498C42.6957 2.85681 42.315 2.9295 41.9614 3.07834C41.6078 3.22719 41.2891 3.4489 41.0258 3.72919V0.186781H39.3304V9.91361H41.0258V6.19682C41.0258 5.20977 41.6484 4.5309 42.6821 4.5309C43.6492 4.5309 44.1791 5.13081 44.1791 6.19682V9.91361H45.8745V5.88974C45.8745 3.99789 44.6959 2.86498 43.0789 2.86498V2.86498ZM35.7628 4.51774C36.4781 4.51774 37.0614 4.89062 37.5073 5.41047L38.686 4.23807C38.337 3.80347 37.8947 3.45411 37.3921 3.21628C36.8896 2.97845 36.34 2.85834 35.7846 2.86498C33.7315 2.86498 32.1157 4.43768 32.1157 6.48964C32.1157 8.54161 33.7315 10.1143 35.7846 10.1143C36.3414 10.1223 36.8928 10.0028 37.3969 9.76493C37.9011 9.52705 38.3449 9.17699 38.6947 8.74122L37.5161 7.56772C37.0799 8.07441 36.4824 8.46045 35.7541 8.46045C34.6638 8.46045 33.8329 7.60721 33.8329 6.48635C33.8329 5.3655 34.667 4.51225 35.7672 4.51225L35.7628 4.51774ZM23.3331 0.973131H21.6321V3.07884H20.7163V4.5978H21.63V9.91361H23.3331V4.5978H24.2609V3.07884H23.3331V0.973131ZM19.1287 0.000338418C18.9812 -0.000562304 18.835 0.0282242 18.6986 0.0850049C18.5623 0.141786 18.4387 0.225414 18.3349 0.330971C18.2312 0.436528 18.1495 0.561882 18.0947 0.699661C18.0398 0.83744 18.0129 0.98486 18.0155 1.13325C18.0155 1.43372 18.1342 1.72188 18.3454 1.93434C18.5566 2.14681 18.8431 2.26617 19.1418 2.26617C19.4405 2.26617 19.727 2.14681 19.9383 1.93434C20.1495 1.72188 20.2681 1.43372 20.2681 1.13325C20.2701 0.982817 20.2419 0.833531 20.1851 0.694327C20.1284 0.555122 20.0443 0.428859 19.9379 0.323092C19.8316 0.217325 19.7051 0.134228 19.566 0.0787711C19.427 0.0233144 19.2783 -0.00336185 19.1287 0.000338418V0.000338418ZM46.5331 2.41313H46.785L47.0619 2.87046H47.2385L46.9365 2.3879C46.9767 2.38608 47.0161 2.37593 47.0522 2.35809C47.0883 2.34024 47.1204 2.31509 47.1464 2.2842C47.1724 2.25331 47.1918 2.21736 47.2033 2.17859C47.2149 2.13982 47.2183 2.09906 47.2135 2.05889C47.2135 1.80445 47.0368 1.70355 46.785 1.70355H46.3815V2.86936H46.5331V2.41313ZM46.5331 1.85599H46.785C46.9867 1.85599 47.0619 1.93167 47.0619 2.05889C47.0619 2.18611 46.9867 2.26178 46.785 2.26178H46.5331V1.85599ZM46.785 3.4276C47.0058 3.42521 47.2211 3.3573 47.4037 3.23239C47.5864 3.10747 47.7283 2.9311 47.8117 2.72539C47.8952 2.51968 47.9164 2.29378 47.8727 2.076C47.829 1.85821 47.7224 1.65824 47.5662 1.50114C47.4101 1.34405 47.2113 1.23681 46.9947 1.19289C46.7782 1.14896 46.5536 1.17029 46.3491 1.2542C46.1446 1.33812 45.9693 1.48089 45.8451 1.66461C45.7209 1.84834 45.6534 2.06485 45.651 2.287C45.6499 2.43706 45.6784 2.58586 45.735 2.72471C45.7916 2.86356 45.8751 2.98969 45.9806 3.09575C46.0862 3.20181 46.2116 3.28567 46.3497 3.34246C46.4878 3.39925 46.6358 3.42781 46.785 3.4265V3.4276ZM46.785 1.32299C47.0368 1.33148 47.2756 1.43809 47.4508 1.62032C47.626 1.80254 47.7239 2.04612 47.7239 2.29962C47.7239 2.55311 47.626 2.79669 47.4508 2.97892C47.2756 3.16114 47.0368 3.26776 46.785 3.27625C46.6547 3.28064 46.5249 3.25863 46.4033 3.21152C46.2817 3.16442 46.1708 3.09319 46.0771 3.00206C45.9834 2.91094 45.9089 2.80179 45.858 2.68112C45.8072 2.56044 45.7809 2.4307 45.7809 2.29962C45.7809 2.16854 45.8072 2.0388 45.858 1.91812C45.9089 1.79744 45.9834 1.68829 46.0771 1.59717C46.1708 1.50605 46.2817 1.43481 46.4033 1.38771C46.5249 1.34061 46.6547 1.31859 46.785 1.32299V1.32299Z" fill="#00B8FC"/>
</svg>
