<svg width="66" height="16" viewBox="0 0 66 16" fill="none" xmlns="http://www.w3.org/2000/svg">
<path d="M13.0536 10.4955C12.0243 10.4955 11.2289 9.71979 11.2289 8.67023C11.2289 7.66631 12.0243 6.89055 13.0536 6.89055C14.0829 6.89055 14.8783 7.66631 14.8783 8.67023C14.9251 9.71979 14.0829 10.4955 13.0536 10.4955ZM16.4223 6.84492V5.61283H14.1765C13.8022 5.47594 13.4279 5.4303 13.0536 5.4303C11.1353 5.4303 9.63815 6.84492 9.63815 8.71587C9.63815 10.5868 11.1353 12.0014 13.0536 12.0014C14.9719 12.0014 16.4691 10.5868 16.4691 8.71587C16.4691 8.07701 16.2819 7.48378 15.9544 7.02745L16.4223 6.84492ZM5.66124 10.4955C4.63193 10.4955 3.83654 9.71979 3.83654 8.67023C3.83654 7.66631 4.63193 6.89055 5.66124 6.89055C6.69056 6.89055 7.48594 7.66631 7.48594 8.67023C7.48594 9.71979 6.69056 10.4955 5.66124 10.4955ZM5.66124 5.4303C3.74297 5.4303 2.24578 6.84492 2.24578 8.71587C2.24578 10.5868 3.74297 12.0014 5.66124 12.0014C7.57951 12.0014 9.0767 10.5868 9.0767 8.71587C9.0767 6.84492 7.57951 5.4303 5.66124 5.4303ZM0 11.8189H1.59076V3.01177H0V11.8189ZM17.1241 11.8189H18.7148V5.61283H17.1241V11.8189ZM13.0536 14.0093C12.0243 14.0093 11.2289 13.2335 11.2289 12.2296H9.63815C9.63815 14.1005 11.1353 15.5152 13.0536 15.5152C14.9719 15.5152 16.4691 14.1005 16.4691 12.2296H14.8783C14.8783 13.2791 14.0829 14.0093 13.0536 14.0093ZM24.5632 8.07701C24.7972 7.25562 25.4054 6.79929 26.2476 6.79929C27.0897 6.79929 27.698 7.25562 27.8851 8.07701H24.5632ZM26.2944 5.4303C24.3761 5.4303 22.9257 6.84492 22.9257 8.7615C22.9257 10.6324 24.2357 12.0014 26.2944 12.0014C27.4173 12.0014 28.4466 11.5907 29.1952 10.815L28.1191 9.76542C27.6044 10.2674 27.043 10.5868 26.3412 10.5868C25.4522 10.5868 24.7972 10.0848 24.61 9.30909H29.5695V8.94403C29.5695 6.84492 28.2126 5.4303 26.2944 5.4303ZM40.3773 5.4303C39.5819 5.4303 38.9269 5.7041 38.459 6.20606V2.96613H36.8683V11.8189H38.459V8.44207C38.459 7.52941 39.0205 6.93619 40.003 6.93619C40.8919 6.93619 41.4066 7.48378 41.4066 8.44207V11.8189H42.9974V8.16827C42.9974 6.43423 41.8745 5.4303 40.3773 5.4303ZM33.4996 6.93619C34.1546 6.93619 34.716 7.25562 35.1371 7.75758L36.26 6.70802C35.6518 5.93226 34.6693 5.47594 33.5464 5.47594C31.6281 5.47594 30.1309 6.89055 30.1309 8.7615C30.1309 10.6324 31.6281 12.0471 33.5464 12.0471C34.6693 12.0471 35.6518 11.5451 36.26 10.815L35.1371 9.71979C34.716 10.1761 34.1546 10.5412 33.4996 10.5412C32.4703 10.5412 31.7217 9.76542 31.7217 8.7615C31.6749 7.71194 32.4703 6.93619 33.4996 6.93619ZM21.8496 3.69626H20.2588V5.61283H19.4167V6.98182H20.2588V11.8189H21.8496V6.98182H22.7385V5.61283H21.8496V3.69626ZM17.9195 2.82923C17.358 2.82923 16.8902 3.28556 16.8902 3.87879C16.8902 4.42638 17.358 4.88271 17.9195 4.88271C18.5277 4.88271 18.9956 4.42638 18.9956 3.87879C18.9956 3.28556 18.5277 2.82923 17.9195 2.82923ZM55.0684 0V3.14866C52.5419 3.14866 50.5301 5.11087 50.5301 7.57505C50.5301 9.99358 52.5419 12.0014 55.0684 12.0014V15.1501C50.764 15.1501 47.255 11.7733 47.255 7.57505C47.255 3.37683 50.764 0 55.0684 0ZM55.162 6.20606V9.30909H58.905V12.9597H62.0865V6.20606H55.162Z" fill="#878787"/>
<path d="M62.2402 13.9914H63.262V14.1992H62.8533V15.5498H62.6489V14.1992H62.2402V13.9914Z" fill="#878787"/>
<path d="M64.2832 15.2381H64.13L63.6702 14.5108V15.5498H63.4658V13.9914H63.6191L64.2321 14.9264L64.7941 13.9914H64.9474V15.5498H64.743V14.5108L64.2832 15.2381Z" fill="#878787"/>
</svg>
