<?xml version="1.0" encoding="UTF-8"?>
<svg width="32px" height="32px" viewBox="0 0 32 32" version="1.1" xmlns="http://www.w3.org/2000/svg" xmlns:xlink="http://www.w3.org/1999/xlink">
    <title>twitter</title>
    <g id="twitter" stroke="none" stroke-width="1" fill="none" fill-rule="evenodd">
        <g id="01-Atoms/Social-Icons/Twitter/og-white" transform="translate(0.000000, 3.000000)" fill="#FFFFFF" fill-rule="nonzero">
            <g id="twitter-white">
                <path d="M32,3.07620912 C30.8222203,3.598229 29.5584797,3.9522569 28.2306867,4.11031162 C29.5864536,3.29822839 30.6242592,2.01015049 31.1161293,0.480021886 C29.8443886,1.23206315 28.4406216,1.77814165 26.9448806,2.07416735 C25.747127,0.796079007 24.043438,0 22.1537617,0 C18.5284486,0 15.5889928,2.94022558 15.5889928,6.56450065 C15.5889928,7.07851842 15.6469798,7.58055918 15.75898,8.06063337 C10.3040168,7.78657424 5.46693704,5.17239534 2.22954613,1.20005472 C1.66363671,2.1681529 1.34170154,3.29618864 1.34170154,4.50032286 C1.34170154,6.77851782 2.50149428,8.78866831 4.26118343,9.9647167 C3.18536468,9.92873336 2.17354604,9.63270766 1.28774067,9.14065646 L1.28774067,9.222665 C1.28774067,12.4029015 3.55132606,15.057091 6.55274273,15.6611717 C6.00283334,15.8091845 5.42296311,15.8911931 4.8230667,15.8911931 C4.39917059,15.8911931 3.98923528,15.8491951 3.58729998,15.769174 C4.42311834,18.379378 6.846704,20.2774989 9.71818581,20.3295388 C7.47258737,22.0896888 4.64110562,23.1357683 1.5657019,23.1357683 C1.03581869,23.1357683 0.513883193,23.1037599 0,23.0457577 C2.9054688,24.9119225 6.35483391,26 10.0621341,26 C22.1378662,26 28.7386613,15.9952205 28.7386613,7.31858167 L28.7166482,6.46852766 C30.0063758,5.54838982 31.1221424,4.39232055 32,3.07620912 Z" id="Shape"></path>
            </g>
        </g>
    </g>
</svg>